<svg xmlns="http://www.w3.org/2000/svg" viewBox="0 0 1520 560" width="1520" height="560" font-family="Helvetica Neue, Helvetica, Arial, sans-serif">
<title>mcbla-plasmidsaurus-pipe subway map</title>
<rect x="40" y="20" width="612" height="460" rx="14" fill="#F6F8FA"/>
<circle cx="62" cy="44" r="13" fill="#1F2328"/><text x="62" y="49" font-size="14" font-weight="700" fill="#F6F8FA" text-anchor="middle">1</text><text x="82" y="49" font-size="15" font-weight="700" fill="#1F2328">Preprocessing</text>
<rect x="660" y="20" width="452" height="460" rx="14" fill="#F6F8FA"/>
<circle cx="682" cy="44" r="13" fill="#1F2328"/><text x="682" y="49" font-size="14" font-weight="700" fill="#F6F8FA" text-anchor="middle">2</text><text x="702" y="49" font-size="15" font-weight="700" fill="#1F2328">Counts &amp; QC</text>
<rect x="1120" y="20" width="372" height="460" rx="14" fill="#F6F8FA"/>
<circle cx="1142" cy="44" r="13" fill="#1F2328"/><text x="1142" y="49" font-size="14" font-weight="700" fill="#F6F8FA" text-anchor="middle">3</text><text x="1162" y="49" font-size="15" font-weight="700" fill="#1F2328">Differential expression</text>
<polyline points="630,220 630,350 690,410 1030,410" fill="none" stroke="#F2B138" stroke-width="9" stroke-linejoin="round" stroke-linecap="round"/>
<polyline points="1250,220 1360,110 1440,110" fill="none" stroke="#E8702A" stroke-width="9" stroke-linejoin="round" stroke-linecap="round"/>
<polyline points="1090,220 1440,220" fill="none" stroke="#1F6FEB" stroke-width="9" stroke-linejoin="round" stroke-linecap="round"/>
<polyline points="90,220 1090,220" fill="none" stroke="#24B064" stroke-width="9" stroke-linejoin="round" stroke-linecap="round"/>
<rect x="80" y="208" width="20" height="24" rx="3" fill="#FFFFFF" stroke="#1F2328" stroke-width="3"/><line x1="85" y1="216" x2="95" y2="216" stroke="#1F2328" stroke-width="2"/><line x1="85" y1="222" x2="95" y2="222" stroke="#1F2328" stroke-width="2"/>
<text x="90" y="252" font-size="13" font-weight="700" fill="#1F2328" text-anchor="middle">FASTQ</text>
<circle cx="200" cy="220" r="9" fill="#FFFFFF" stroke="#1F2328" stroke-width="3"/>
<text x="200" y="252" font-size="13" font-weight="700" fill="#1F2328" text-anchor="middle">fastp</text>
<text x="200" y="267" font-size="11.5" font-weight="400" fill="#59636E" text-anchor="middle">poly-X + quality</text>
<text x="200" y="282" font-size="11.5" font-weight="400" fill="#59636E" text-anchor="middle">trim</text>
<circle cx="310" cy="220" r="9" fill="#FFFFFF" stroke="#1F2328" stroke-width="3"/>
<text x="310" y="252" font-size="13" font-weight="700" fill="#1F2328" text-anchor="middle">STAR</text>
<text x="310" y="267" font-size="11.5" font-weight="400" fill="#59636E" text-anchor="middle">splice-aware</text>
<circle cx="420" cy="220" r="9" fill="#FFFFFF" stroke="#1F2328" stroke-width="3"/>
<text x="420" y="252" font-size="13" font-weight="700" fill="#1F2328" text-anchor="middle">samtools</text>
<text x="420" y="267" font-size="11.5" font-weight="400" fill="#59636E" text-anchor="middle">sort + index</text>
<circle cx="530" cy="220" r="9" fill="#FFFFFF" stroke="#1F2328" stroke-width="3"/>
<text x="530" y="252" font-size="13" font-weight="700" fill="#1F2328" text-anchor="middle">UMICollapse</text>
<text x="530" y="267" font-size="11.5" font-weight="400" fill="#59636E" text-anchor="middle">UMI dedup</text>
<rect x="617" y="207" width="26" height="26" rx="13" fill="#FFFFFF" stroke="#1F2328" stroke-width="3.5"/>
<text x="630" y="198" font-size="13" font-weight="700" fill="#1F2328" text-anchor="middle">Final BAMs</text>
<circle cx="750" cy="220" r="9" fill="#FFFFFF" stroke="#1F2328" stroke-width="3"/>
<text x="750" y="183" font-size="13" font-weight="700" fill="#1F2328" text-anchor="middle">featureCounts</text>
<text x="750" y="198" font-size="11.5" font-weight="400" fill="#59636E" text-anchor="middle">gene bodies, 1/NH</text>
<circle cx="870" cy="220" r="9" fill="#FFFFFF" stroke="#1F2328" stroke-width="3"/>
<text x="870" y="183" font-size="13" font-weight="700" fill="#1F2328" text-anchor="middle">edgeR TMM</text>
<text x="870" y="198" font-size="11.5" font-weight="400" fill="#59636E" text-anchor="middle">normalization</text>
<circle cx="985" cy="220" r="9" fill="#FFFFFF" stroke="#1F2328" stroke-width="3"/>
<text x="985" y="183" font-size="13" font-weight="700" fill="#1F2328" text-anchor="middle">Correlation</text>
<text x="985" y="198" font-size="11.5" font-weight="400" fill="#59636E" text-anchor="middle">+ PCA</text>
<rect x="1077" y="207" width="26" height="26" rx="13" fill="#FFFFFF" stroke="#1F2328" stroke-width="3.5"/>
<text x="1090" y="252" font-size="13" font-weight="700" fill="#1F2328" text-anchor="middle">Normalized</text>
<text x="1090" y="267" font-size="11.5" font-weight="400" fill="#59636E" text-anchor="middle">counts</text>
<circle cx="740" cy="410" r="9" fill="#FFFFFF" stroke="#1F2328" stroke-width="3"/>
<text x="740" y="442" font-size="13" font-weight="700" fill="#1F2328" text-anchor="middle">RSeQC</text>
<text x="740" y="457" font-size="11.5" font-weight="400" fill="#59636E" text-anchor="middle">strand, read</text>
<text x="740" y="472" font-size="11.5" font-weight="400" fill="#59636E" text-anchor="middle">distribution</text>
<circle cx="840" cy="410" r="9" fill="#FFFFFF" stroke="#1F2328" stroke-width="3"/>
<text x="840" y="442" font-size="13" font-weight="700" fill="#1F2328" text-anchor="middle">Gene body</text>
<text x="840" y="457" font-size="11.5" font-weight="400" fill="#59636E" text-anchor="middle">coverage</text>
<text x="840" y="472" font-size="11.5" font-weight="400" fill="#59636E" text-anchor="middle">(housekeeping)</text>
<circle cx="940" cy="410" r="9" fill="#FFFFFF" stroke="#1F2328" stroke-width="3"/>
<text x="940" y="442" font-size="13" font-weight="700" fill="#1F2328" text-anchor="middle">Qualimap</text>
<text x="940" y="457" font-size="11.5" font-weight="400" fill="#59636E" text-anchor="middle">RNA-seq QC</text>
<rect x="1020" y="398" width="20" height="24" rx="3" fill="#FFFFFF" stroke="#1F2328" stroke-width="3"/><line x1="1025" y1="406" x2="1035" y2="406" stroke="#1F2328" stroke-width="2"/><line x1="1025" y1="412" x2="1035" y2="412" stroke="#1F2328" stroke-width="2"/>
<text x="1030" y="388" font-size="13" font-weight="700" fill="#1F2328" text-anchor="middle">MultiQC</text>
<circle cx="1250" cy="220" r="9" fill="#FFFFFF" stroke="#1F2328" stroke-width="3"/>
<text x="1250" y="252" font-size="13" font-weight="700" fill="#1F2328" text-anchor="middle">edgeR QL</text>
<text x="1250" y="267" font-size="11.5" font-weight="400" fill="#59636E" text-anchor="middle">per contrast</text>
<rect x="1430" y="208" width="20" height="24" rx="3" fill="#FFFFFF" stroke="#1F2328" stroke-width="3"/><line x1="1435" y1="216" x2="1445" y2="216" stroke="#1F2328" stroke-width="2"/><line x1="1435" y1="222" x2="1445" y2="222" stroke="#1F2328" stroke-width="2"/>
<text x="1440" y="252" font-size="13" font-weight="700" fill="#1F2328" text-anchor="middle">Tables, MA +</text>
<text x="1440" y="267" font-size="11.5" font-weight="400" fill="#59636E" text-anchor="middle">volcano plots</text>
<rect x="1430" y="98" width="20" height="24" rx="3" fill="#FFFFFF" stroke="#1F2328" stroke-width="3"/><line x1="1435" y1="106" x2="1445" y2="106" stroke="#1F2328" stroke-width="2"/><line x1="1435" y1="112" x2="1445" y2="112" stroke="#1F2328" stroke-width="2"/>
<text x="1440" y="73" font-size="13" font-weight="700" fill="#1F2328" text-anchor="middle">GSEApy prerank</text>
<text x="1440" y="88" font-size="11.5" font-weight="400" fill="#59636E" text-anchor="middle">MSigDB Hallmark</text>
<line x1="40" y1="502" x2="76" y2="502" stroke="#24B064" stroke-width="8" stroke-linecap="round"/><text x="90" y="507" font-size="13" fill="#1F2328">Processing: FASTQ to normalized counts</text>
<line x1="390" y1="502" x2="426" y2="502" stroke="#F2B138" stroke-width="8" stroke-linecap="round"/><text x="440" y="507" font-size="13" fill="#1F2328">QC</text>
<line x1="740" y1="502" x2="776" y2="502" stroke="#1F6FEB" stroke-width="8" stroke-linecap="round"/><text x="790" y="507" font-size="13" fill="#1F2328">Differential expression (edgeR)</text>
<line x1="1090" y1="502" x2="1126" y2="502" stroke="#E8702A" stroke-width="8" stroke-linecap="round"/><text x="1140" y="507" font-size="13" fill="#1F2328">Enrichment (GSEApy)</text>
</svg>
